<svg xmlns="http://www.w3.org/2000/svg" viewBox="0 0 965.8 223.2" width="966" height="223" role="img" aria-label="ImmPrint">
  <rect width="965.8" height="223.2" rx="26" fill="#ffffff"/>
  <rect x="36.97" y="50.42" width="128.84" height="28.99" rx="14.49" fill="#7c3aed"/>
  <rect x="36.97" y="97.13" width="128.84" height="28.99" rx="14.49" fill="#06b6d4"/>
  <rect x="36.97" y="143.83" width="128.84" height="28.99" rx="14.49" fill="#f43f5e"/>
  <path transform="translate(211.87 171.62) scale(0.16807 -0.16807)" d="M66 0V700H198V0Z M334 0V496H458V442H476Q489 467 519.0 485.5Q549 504 598 504Q651 504 683.0 483.5Q715 463 732 430H750Q767 462 798.0 483.0Q829 504 886 504Q932 504 969.5 484.5Q1007 465 1029.5 425.5Q1052 386 1052 326V0H926V317Q926 358 905.0 378.5Q884 399 846 399Q803 399 779.5 371.5Q756 344 756 293V0H630V317Q630 358 609.0 378.5Q588 399 550 399Q507 399 483.5 371.5Q460 344 460 293V0Z M1188 0V496H1312V442H1330Q1343 467 1373.0 485.5Q1403 504 1452 504Q1505 504 1537.0 483.5Q1569 463 1586 430H1604Q1621 462 1652.0 483.0Q1683 504 1740 504Q1786 504 1823.5 484.5Q1861 465 1883.5 425.5Q1906 386 1906 326V0H1780V317Q1780 358 1759.0 378.5Q1738 399 1700 399Q1657 399 1633.5 371.5Q1610 344 1610 293V0H1484V317Q1484 358 1463.0 378.5Q1442 399 1404 399Q1361 399 1337.5 371.5Q1314 344 1314 293V0Z M2038 0V700H2326Q2392 700 2442.5 673.5Q2493 647 2521.5 599.0Q2550 551 2550 485V471Q2550 406 2520.5 357.5Q2491 309 2440.5 282.5Q2390 256 2326 256H2170V0ZM2170 376H2313Q2360 376 2389.0 402.0Q2418 428 2418 473V483Q2418 528 2389.0 554.0Q2360 580 2313 580H2170Z M2646 0V496H2770V440H2788Q2799 470 2824.5 484.0Q2850 498 2884 498H2944V386H2882Q2834 386 2803.0 360.5Q2772 335 2772 282V0Z M3042 0V496H3168V0ZM3105 554Q3071 554 3047.5 576.0Q3024 598 3024 634Q3024 670 3047.5 692.0Q3071 714 3105 714Q3140 714 3163.0 692.0Q3186 670 3186 634Q3186 598 3163.0 576.0Q3140 554 3105 554Z M3308 0V496H3432V431H3450Q3462 457 3495.0 480.5Q3528 504 3595 504Q3653 504 3696.5 477.5Q3740 451 3764.0 404.5Q3788 358 3788 296V0H3662V286Q3662 342 3634.5 370.0Q3607 398 3556 398Q3498 398 3466.0 359.5Q3434 321 3434 252V0Z M4114 0Q4065 0 4034.5 30.5Q4004 61 4004 112V392H3880V496H4004V650H4130V496H4266V392H4130V134Q4130 104 4158 104H4254V0Z" fill="#16191f"/>
</svg>
