<svg xmlns="http://www.w3.org/2000/svg" viewBox="0 0 959.0 218.9" width="959" height="219" role="img" aria-label="ImmPrint">
  <rect width="959.0" height="218.9" rx="26" fill="#ffffff"/>
  <rect x="35.39" y="48.26" width="128.84" height="28.99" rx="14.49" fill="#7c3aed"/>
  <rect x="35.39" y="94.96" width="128.84" height="28.99" rx="14.49" fill="#06b6d4"/>
  <rect x="35.39" y="141.67" width="128.84" height="28.99" rx="14.49" fill="#f43f5e"/>
  <path transform="translate(210.40 169.46) scale(0.160858 -0.160858)" d="M53 0V106H145V592H53V698H370V592H277V106H370V0Z M497 0V522H625V435H630Q645 476 678.0 505.0Q711 534 770 534Q824 534 863.0 508.0Q902 482 921 429H923Q937 473 978.5 503.5Q1020 534 1083 534Q1160 534 1201.5 481.0Q1243 428 1243 330V0H1115V317Q1115 429 1031 429Q1012 429 994.5 423.5Q977 418 963.5 407.5Q950 397 942.0 381.5Q934 366 934 345V0H806V317Q806 429 722 429Q704 429 686.5 423.5Q669 418 655.5 407.5Q642 397 633.5 381.5Q625 366 625 345V0Z M1385 0V522H1513V435H1518Q1533 476 1566.0 505.0Q1599 534 1658 534Q1712 534 1751.0 508.0Q1790 482 1809 429H1811Q1825 473 1866.5 503.5Q1908 534 1971 534Q2048 534 2089.5 481.0Q2131 428 2131 330V0H2003V317Q2003 429 1919 429Q1900 429 1882.5 423.5Q1865 418 1851.5 407.5Q1838 397 1830.0 381.5Q1822 366 1822 345V0H1694V317Q1694 429 1610 429Q1592 429 1574.5 423.5Q1557 418 1543.5 407.5Q1530 397 1521.5 381.5Q1513 366 1513 345V0Z M2281 0V698H2595Q2643 698 2681.5 682.5Q2720 667 2747.0 638.5Q2774 610 2788.0 570.0Q2802 530 2802 482Q2802 433 2788.0 393.5Q2774 354 2747.0 325.5Q2720 297 2681.5 281.5Q2643 266 2595 266H2413V0ZM2413 380H2583Q2621 380 2643.0 400.5Q2665 421 2665 459V505Q2665 543 2643.0 563.0Q2621 583 2583 583H2413Z M2914 0V522H3042V414H3047Q3052 435 3062.5 454.5Q3073 474 3090.0 489.0Q3107 504 3130.5 513.0Q3154 522 3185 522H3213V401H3173Q3108 401 3075.0 382.0Q3042 363 3042 320V0Z M3371 598Q3331 598 3313.5 616.0Q3296 634 3296 662V682Q3296 710 3313.5 728.0Q3331 746 3371 746Q3410 746 3428.0 728.0Q3446 710 3446 682V662Q3446 634 3428.0 616.0Q3410 598 3371 598ZM3307 522H3435V0H3307Z M3583 0V522H3711V435H3716Q3732 477 3766.5 505.5Q3801 534 3862 534Q3943 534 3986.0 481.0Q4029 428 4029 330V0H3901V317Q3901 373 3881.0 401.0Q3861 429 3815 429Q3795 429 3776.5 423.5Q3758 418 3743.5 407.5Q3729 397 3720.0 381.5Q3711 366 3711 345V0Z M4334 0Q4268 0 4233.5 34.5Q4199 69 4199 133V420H4122V522H4162Q4191 522 4201.5 535.5Q4212 549 4212 576V665H4327V522H4434V420H4327V102H4426V0Z" fill="#16191f"/>
</svg>
