<svg xmlns="http://www.w3.org/2000/svg" viewBox="0 0 1280 640" width="1280" height="640" role="img" aria-label="ImmPrint">
  <rect width="1280" height="640" fill="#ffffff"/>
  <rect x="222.10" y="198.93" width="120.14" height="27.03" rx="13.52" fill="#7c3aed"/>
  <rect x="222.10" y="242.48" width="120.14" height="27.03" rx="13.52" fill="#06b6d4"/>
  <rect x="222.10" y="286.04" width="120.14" height="27.03" rx="13.52" fill="#f43f5e"/>
  
  <path transform="translate(379.30 311.95) scale(0.150000 -0.150000)" d="M53 0V106H145V592H53V698H370V592H277V106H370V0Z M497 0V522H625V435H630Q645 476 678.0 505.0Q711 534 770 534Q824 534 863.0 508.0Q902 482 921 429H923Q937 473 978.5 503.5Q1020 534 1083 534Q1160 534 1201.5 481.0Q1243 428 1243 330V0H1115V317Q1115 429 1031 429Q1012 429 994.5 423.5Q977 418 963.5 407.5Q950 397 942.0 381.5Q934 366 934 345V0H806V317Q806 429 722 429Q704 429 686.5 423.5Q669 418 655.5 407.5Q642 397 633.5 381.5Q625 366 625 345V0Z M1385 0V522H1513V435H1518Q1533 476 1566.0 505.0Q1599 534 1658 534Q1712 534 1751.0 508.0Q1790 482 1809 429H1811Q1825 473 1866.5 503.5Q1908 534 1971 534Q2048 534 2089.5 481.0Q2131 428 2131 330V0H2003V317Q2003 429 1919 429Q1900 429 1882.5 423.5Q1865 418 1851.5 407.5Q1838 397 1830.0 381.5Q1822 366 1822 345V0H1694V317Q1694 429 1610 429Q1592 429 1574.5 423.5Q1557 418 1543.5 407.5Q1530 397 1521.5 381.5Q1513 366 1513 345V0Z M2281 0V698H2595Q2643 698 2681.5 682.5Q2720 667 2747.0 638.5Q2774 610 2788.0 570.0Q2802 530 2802 482Q2802 433 2788.0 393.5Q2774 354 2747.0 325.5Q2720 297 2681.5 281.5Q2643 266 2595 266H2413V0ZM2413 380H2583Q2621 380 2643.0 400.5Q2665 421 2665 459V505Q2665 543 2643.0 563.0Q2621 583 2583 583H2413Z M2914 0V522H3042V414H3047Q3052 435 3062.5 454.5Q3073 474 3090.0 489.0Q3107 504 3130.5 513.0Q3154 522 3185 522H3213V401H3173Q3108 401 3075.0 382.0Q3042 363 3042 320V0Z M3371 598Q3331 598 3313.5 616.0Q3296 634 3296 662V682Q3296 710 3313.5 728.0Q3331 746 3371 746Q3410 746 3428.0 728.0Q3446 710 3446 682V662Q3446 634 3428.0 616.0Q3410 598 3371 598ZM3307 522H3435V0H3307Z M3583 0V522H3711V435H3716Q3732 477 3766.5 505.5Q3801 534 3862 534Q3943 534 3986.0 481.0Q4029 428 4029 330V0H3901V317Q3901 373 3881.0 401.0Q3861 429 3815 429Q3795 429 3776.5 423.5Q3758 418 3743.5 407.5Q3729 397 3720.0 381.5Q3711 366 3711 345V0Z M4334 0Q4268 0 4233.5 34.5Q4199 69 4199 133V420H4122V522H4162Q4191 522 4201.5 535.5Q4212 549 4212 576V665H4327V522H4434V420H4327V102H4426V0Z" fill="#16191f"/>
  <path transform="translate(196.71 410.00) scale(0.034000 -0.034000)" d="M530 0 460 206H178L108 0H23L267 698H374L618 0ZM321 620H316L198 280H439Z M1154 -12Q1100 -12 1057.0 7.0Q1014 26 984.5 61.0Q955 96 939.5 146.0Q924 196 924 258Q924 320 939.5 370.0Q955 420 984.5 455.0Q1014 490 1057.0 509.0Q1100 528 1154 528Q1231 528 1277.5 494.5Q1324 461 1347 407L1280 373Q1266 413 1234.0 435.0Q1202 457 1154 457Q1118 457 1091.0 445.5Q1064 434 1046.0 413.5Q1028 393 1019.0 364.5Q1010 336 1010 302V214Q1010 146 1046.5 102.5Q1083 59 1154 59Q1251 59 1294 149L1352 110Q1327 54 1277.5 21.0Q1228 -12 1154 -12Z M1783 84H1779Q1771 66 1759.5 48.5Q1748 31 1731.0 17.5Q1714 4 1690.0 -4.0Q1666 -12 1634 -12Q1554 -12 1507.0 39.5Q1460 91 1460 185V516H1540V199Q1540 60 1658 60Q1682 60 1704.5 66.0Q1727 72 1744.5 84.0Q1762 96 1772.5 114.5Q1783 133 1783 159V516H1863V0H1783Z M2033 0V516H2113V421H2118Q2132 458 2168.0 487.0Q2204 516 2267 516H2298V436H2251Q2186 436 2149.5 411.5Q2113 387 2113 350V0Z M2775 0Q2730 0 2710.5 24.0Q2691 48 2686 84H2681Q2664 36 2625.0 12.0Q2586 -12 2532 -12Q2450 -12 2404.5 30.0Q2359 72 2359 144Q2359 217 2412.5 256.0Q2466 295 2579 295H2681V346Q2681 401 2651.0 430.0Q2621 459 2559 459Q2512 459 2480.5 438.0Q2449 417 2428 382L2380 427Q2401 469 2447.0 498.5Q2493 528 2563 528Q2657 528 2709.0 482.0Q2761 436 2761 354V70H2820V0ZM2545 56Q2575 56 2600.0 63.0Q2625 70 2643.0 83.0Q2661 96 2671.0 113.0Q2681 130 2681 150V235H2575Q2506 235 2474.5 215.0Q2443 195 2443 157V136Q2443 98 2470.5 77.0Q2498 56 2545 56Z M3048 0Q3006 0 2984.5 23.5Q2963 47 2963 85V446H2878V516H2926Q2952 516 2961.5 526.5Q2971 537 2971 563V659H3043V516H3156V446H3043V70H3148V0Z M3479 -12Q3426 -12 3383.5 7.0Q3341 26 3310.5 61.5Q3280 97 3263.5 146.5Q3247 196 3247 258Q3247 319 3263.5 369.0Q3280 419 3310.5 454.5Q3341 490 3383.5 509.0Q3426 528 3479 528Q3531 528 3572.0 509.0Q3613 490 3642.0 456.5Q3671 423 3686.5 377.0Q3702 331 3702 276V238H3331V214Q3331 181 3341.5 152.5Q3352 124 3371.5 103.0Q3391 82 3419.5 70.0Q3448 58 3484 58Q3533 58 3569.5 81.0Q3606 104 3626 147L3683 106Q3658 53 3605.0 20.5Q3552 -12 3479 -12ZM3479 461Q3446 461 3419.0 449.5Q3392 438 3372.5 417.0Q3353 396 3342.0 367.5Q3331 339 3331 305V298H3616V309Q3616 378 3578.5 419.5Q3541 461 3479 461Z M4164 84H4160Q4113 -12 4009 -12Q3961 -12 3922.0 7.0Q3883 26 3855.5 61.0Q3828 96 3813.5 146.0Q3799 196 3799 258Q3799 320 3813.5 370.0Q3828 420 3855.5 455.0Q3883 490 3922.0 509.0Q3961 528 4009 528Q4063 528 4101.5 504.5Q4140 481 4160 432H4164V740H4244V0H4164ZM4031 60Q4058 60 4082.5 67.0Q4107 74 4125.0 87.5Q4143 101 4153.5 120.5Q4164 140 4164 165V357Q4164 378 4153.5 396.5Q4143 415 4125.0 428.0Q4107 441 4082.5 448.5Q4058 456 4031 456Q3963 456 3924.0 413.5Q3885 371 3885 302V214Q3885 145 3924.0 102.5Q3963 60 4031 60Z M4465 117Q4497 117 4511.5 100.5Q4526 84 4526 58V44Q4526 3 4502.0 -46.5Q4478 -96 4435 -133H4368Q4398 -101 4416.5 -72.5Q4435 -44 4443 -9Q4423 -4 4413.5 10.0Q4404 24 4404 44V58Q4404 84 4418.5 100.5Q4433 117 4465 117Z M5114 -12Q5060 -12 5017.0 7.0Q4974 26 4944.5 61.0Q4915 96 4899.5 146.0Q4884 196 4884 258Q4884 320 4899.5 370.0Q4915 420 4944.5 455.0Q4974 490 5017.0 509.0Q5060 528 5114 528Q5191 528 5237.5 494.5Q5284 461 5307 407L5240 373Q5226 413 5194.0 435.0Q5162 457 5114 457Q5078 457 5051.0 445.5Q5024 434 5006.0 413.5Q4988 393 4979.0 364.5Q4970 336 4970 302V214Q4970 146 5006.5 102.5Q5043 59 5114 59Q5211 59 5254 149L5312 110Q5287 54 5237.5 21.0Q5188 -12 5114 -12Z M5465 637Q5439 637 5427.5 649.5Q5416 662 5416 682V695Q5416 715 5427.5 727.5Q5439 740 5465 740Q5491 740 5502.5 727.5Q5514 715 5514 695V682Q5514 662 5502.5 649.5Q5491 637 5465 637ZM5425 516H5505V0H5425Z M5789 0Q5747 0 5725.5 23.5Q5704 47 5704 85V446H5619V516H5667Q5693 516 5702.5 526.5Q5712 537 5712 563V659H5784V516H5897V446H5784V70H5889V0Z M6401 0Q6356 0 6336.5 24.0Q6317 48 6312 84H6307Q6290 36 6251.0 12.0Q6212 -12 6158 -12Q6076 -12 6030.5 30.0Q5985 72 5985 144Q5985 217 6038.5 256.0Q6092 295 6205 295H6307V346Q6307 401 6277.0 430.0Q6247 459 6185 459Q6138 459 6106.5 438.0Q6075 417 6054 382L6006 427Q6027 469 6073.0 498.5Q6119 528 6189 528Q6283 528 6335.0 482.0Q6387 436 6387 354V70H6446V0ZM6171 56Q6201 56 6226.0 63.0Q6251 70 6269.0 83.0Q6287 96 6297.0 113.0Q6307 130 6307 150V235H6201Q6132 235 6100.5 215.0Q6069 195 6069 157V136Q6069 98 6096.5 77.0Q6124 56 6171 56Z M6674 0Q6632 0 6610.5 23.5Q6589 47 6589 85V446H6504V516H6552Q6578 516 6587.5 526.5Q6597 537 6597 563V659H6669V516H6782V446H6669V70H6774V0Z M6951 637Q6925 637 6913.5 649.5Q6902 662 6902 682V695Q6902 715 6913.5 727.5Q6925 740 6951 740Q6977 740 6988.5 727.5Q7000 715 7000 695V682Q7000 662 6988.5 649.5Q6977 637 6951 637ZM6911 516H6991V0H6911Z M7356 -12Q7304 -12 7261.0 7.0Q7218 26 7187.5 61.5Q7157 97 7140.0 146.5Q7123 196 7123 258Q7123 319 7140.0 369.0Q7157 419 7187.5 454.5Q7218 490 7261.0 509.0Q7304 528 7356 528Q7408 528 7450.5 509.0Q7493 490 7524.0 454.5Q7555 419 7572.0 369.0Q7589 319 7589 258Q7589 196 7572.0 146.5Q7555 97 7524.0 61.5Q7493 26 7450.5 7.0Q7408 -12 7356 -12ZM7356 59Q7421 59 7462.0 99.0Q7503 139 7503 221V295Q7503 377 7462.0 417.0Q7421 457 7356 457Q7291 457 7250.0 417.0Q7209 377 7209 295V221Q7209 139 7250.0 99.0Q7291 59 7356 59Z M7721 0V516H7801V432H7805Q7824 476 7858.5 502.0Q7893 528 7951 528Q8031 528 8077.5 476.5Q8124 425 8124 331V0H8044V317Q8044 456 7927 456Q7903 456 7880.5 450.0Q7858 444 7840.0 432.0Q7822 420 7811.5 401.5Q7801 383 7801 358V0Z M8273 261V347H8534V261Z M8688 740H8768V432H8772Q8792 481 8830.5 504.5Q8869 528 8923 528Q8971 528 9010.0 509.0Q9049 490 9076.5 455.0Q9104 420 9118.5 370.0Q9133 320 9133 258Q9133 196 9118.5 146.0Q9104 96 9076.5 61.0Q9049 26 9010.0 7.0Q8971 -12 8923 -12Q8818 -12 8772 84H8768V0H8688ZM8901 60Q8969 60 9008.0 102.5Q9047 145 9047 214V302Q9047 371 9008.0 413.5Q8969 456 8901 456Q8874 456 8849.5 448.5Q8825 441 8807.0 428.0Q8789 415 8778.5 396.5Q8768 378 8768 357V165Q8768 140 8778.5 120.5Q8789 101 8807.0 87.5Q8825 74 8849.5 67.0Q8874 60 8901 60Z M9643 0Q9598 0 9578.5 24.0Q9559 48 9554 84H9549Q9532 36 9493.0 12.0Q9454 -12 9400 -12Q9318 -12 9272.5 30.0Q9227 72 9227 144Q9227 217 9280.5 256.0Q9334 295 9447 295H9549V346Q9549 401 9519.0 430.0Q9489 459 9427 459Q9380 459 9348.5 438.0Q9317 417 9296 382L9248 427Q9269 469 9315.0 498.5Q9361 528 9431 528Q9525 528 9577.0 482.0Q9629 436 9629 354V70H9688V0ZM9413 56Q9443 56 9468.0 63.0Q9493 70 9511.0 83.0Q9529 96 9539.0 113.0Q9549 130 9549 150V235H9443Q9374 235 9342.5 215.0Q9311 195 9311 157V136Q9311 98 9338.5 77.0Q9366 56 9413 56Z M9994 -12Q9940 -12 9897.0 7.0Q9854 26 9824.5 61.0Q9795 96 9779.5 146.0Q9764 196 9764 258Q9764 320 9779.5 370.0Q9795 420 9824.5 455.0Q9854 490 9897.0 509.0Q9940 528 9994 528Q10071 528 10117.5 494.5Q10164 461 10187 407L10120 373Q10106 413 10074.0 435.0Q10042 457 9994 457Q9958 457 9931.0 445.5Q9904 434 9886.0 413.5Q9868 393 9859.0 364.5Q9850 336 9850 302V214Q9850 146 9886.5 102.5Q9923 59 9994 59Q10091 59 10134 149L10192 110Q10167 54 10117.5 21.0Q10068 -12 9994 -12Z M10305 740H10385V271H10389L10468 359L10614 516H10711L10520 312L10730 0H10633L10462 263L10385 184V0H10305Z M11026 -12Q10973 -12 10930.5 7.0Q10888 26 10857.5 61.5Q10827 97 10810.5 146.5Q10794 196 10794 258Q10794 319 10810.5 369.0Q10827 419 10857.5 454.5Q10888 490 10930.5 509.0Q10973 528 11026 528Q11078 528 11119.0 509.0Q11160 490 11189.0 456.5Q11218 423 11233.5 377.0Q11249 331 11249 276V238H10878V214Q10878 181 10888.5 152.5Q10899 124 10918.5 103.0Q10938 82 10966.5 70.0Q10995 58 11031 58Q11080 58 11116.5 81.0Q11153 104 11173 147L11230 106Q11205 53 11152.0 20.5Q11099 -12 11026 -12ZM11026 461Q10993 461 10966.0 449.5Q10939 438 10919.5 417.0Q10900 396 10889.0 367.5Q10878 339 10878 305V298H11163V309Q11163 378 11125.5 419.5Q11088 461 11026 461Z M11711 84H11707Q11660 -12 11556 -12Q11508 -12 11469.0 7.0Q11430 26 11402.5 61.0Q11375 96 11360.5 146.0Q11346 196 11346 258Q11346 320 11360.5 370.0Q11375 420 11402.5 455.0Q11430 490 11469.0 509.0Q11508 528 11556 528Q11610 528 11648.5 504.5Q11687 481 11707 432H11711V740H11791V0H11711ZM11578 60Q11605 60 11629.5 67.0Q11654 74 11672.0 87.5Q11690 101 11700.5 120.5Q11711 140 11711 165V357Q11711 378 11700.5 396.5Q11690 415 11672.0 428.0Q11654 441 11629.5 448.5Q11605 456 11578 456Q11510 456 11471.0 413.5Q11432 371 11432 302V214Q11432 145 11471.0 102.5Q11510 60 11578 60Z M12389 -12Q12335 -12 12292.0 7.0Q12249 26 12219.5 61.0Q12190 96 12174.5 146.0Q12159 196 12159 258Q12159 320 12174.5 370.0Q12190 420 12219.5 455.0Q12249 490 12292.0 509.0Q12335 528 12389 528Q12466 528 12512.5 494.5Q12559 461 12582 407L12515 373Q12501 413 12469.0 435.0Q12437 457 12389 457Q12353 457 12326.0 445.5Q12299 434 12281.0 413.5Q12263 393 12254.0 364.5Q12245 336 12245 302V214Q12245 146 12281.5 102.5Q12318 59 12389 59Q12486 59 12529 149L12587 110Q12562 54 12512.5 21.0Q12463 -12 12389 -12Z M12895 -12Q12843 -12 12800.0 7.0Q12757 26 12726.5 61.5Q12696 97 12679.0 146.5Q12662 196 12662 258Q12662 319 12679.0 369.0Q12696 419 12726.5 454.5Q12757 490 12800.0 509.0Q12843 528 12895 528Q12947 528 12989.5 509.0Q13032 490 13063.0 454.5Q13094 419 13111.0 369.0Q13128 319 13128 258Q13128 196 13111.0 146.5Q13094 97 13063.0 61.5Q13032 26 12989.5 7.0Q12947 -12 12895 -12ZM12895 59Q12960 59 13001.0 99.0Q13042 139 13042 221V295Q13042 377 13001.0 417.0Q12960 457 12895 457Q12830 457 12789.0 417.0Q12748 377 12748 295V221Q12748 139 12789.0 99.0Q12830 59 12895 59Z M13345 0Q13303 0 13281.5 23.5Q13260 47 13260 83V740H13340V70H13416V0Z M13617 0Q13575 0 13553.5 23.5Q13532 47 13532 83V740H13612V70H13688V0Z M13998 -12Q13945 -12 13902.5 7.0Q13860 26 13829.5 61.5Q13799 97 13782.5 146.5Q13766 196 13766 258Q13766 319 13782.5 369.0Q13799 419 13829.5 454.5Q13860 490 13902.5 509.0Q13945 528 13998 528Q14050 528 14091.0 509.0Q14132 490 14161.0 456.5Q14190 423 14205.5 377.0Q14221 331 14221 276V238H13850V214Q13850 181 13860.5 152.5Q13871 124 13890.5 103.0Q13910 82 13938.5 70.0Q13967 58 14003 58Q14052 58 14088.5 81.0Q14125 104 14145 147L14202 106Q14177 53 14124.0 20.5Q14071 -12 13998 -12ZM13998 461Q13965 461 13938.0 449.5Q13911 438 13891.5 417.0Q13872 396 13861.0 367.5Q13850 339 13850 305V298H14135V309Q14135 378 14097.5 419.5Q14060 461 13998 461Z M14545 -12Q14491 -12 14448.0 7.0Q14405 26 14375.5 61.0Q14346 96 14330.5 146.0Q14315 196 14315 258Q14315 320 14330.5 370.0Q14346 420 14375.5 455.0Q14405 490 14448.0 509.0Q14491 528 14545 528Q14622 528 14668.5 494.5Q14715 461 14738 407L14671 373Q14657 413 14625.0 435.0Q14593 457 14545 457Q14509 457 14482.0 445.5Q14455 434 14437.0 413.5Q14419 393 14410.0 364.5Q14401 336 14401 302V214Q14401 146 14437.5 102.5Q14474 59 14545 59Q14642 59 14685 149L14743 110Q14718 54 14668.5 21.0Q14619 -12 14545 -12Z M14970 0Q14928 0 14906.5 23.5Q14885 47 14885 85V446H14800V516H14848Q14874 516 14883.5 526.5Q14893 537 14893 563V659H14965V516H15078V446H14965V70H15070V0Z M15247 637Q15221 637 15209.5 649.5Q15198 662 15198 682V695Q15198 715 15209.5 727.5Q15221 740 15247 740Q15273 740 15284.5 727.5Q15296 715 15296 695V682Q15296 662 15284.5 649.5Q15273 637 15247 637ZM15207 516H15287V0H15207Z M15652 -12Q15600 -12 15557.0 7.0Q15514 26 15483.5 61.5Q15453 97 15436.0 146.5Q15419 196 15419 258Q15419 319 15436.0 369.0Q15453 419 15483.5 454.5Q15514 490 15557.0 509.0Q15600 528 15652 528Q15704 528 15746.5 509.0Q15789 490 15820.0 454.5Q15851 419 15868.0 369.0Q15885 319 15885 258Q15885 196 15868.0 146.5Q15851 97 15820.0 61.5Q15789 26 15746.5 7.0Q15704 -12 15652 -12ZM15652 59Q15717 59 15758.0 99.0Q15799 139 15799 221V295Q15799 377 15758.0 417.0Q15717 457 15652 457Q15587 457 15546.0 417.0Q15505 377 15505 295V221Q15505 139 15546.0 99.0Q15587 59 15652 59Z M16017 0V516H16097V432H16101Q16120 476 16154.5 502.0Q16189 528 16247 528Q16327 528 16373.5 476.5Q16420 425 16420 331V0H16340V317Q16340 456 16223 456Q16199 456 16176.5 450.0Q16154 444 16136.0 432.0Q16118 420 16107.5 401.5Q16097 383 16097 358V0Z M17016 -12Q16964 -12 16921.0 7.0Q16878 26 16847.5 61.5Q16817 97 16800.0 146.5Q16783 196 16783 258Q16783 319 16800.0 369.0Q16817 419 16847.5 454.5Q16878 490 16921.0 509.0Q16964 528 17016 528Q17068 528 17110.5 509.0Q17153 490 17184.0 454.5Q17215 419 17232.0 369.0Q17249 319 17249 258Q17249 196 17232.0 146.5Q17215 97 17184.0 61.5Q17153 26 17110.5 7.0Q17068 -12 17016 -12ZM17016 59Q17081 59 17122.0 99.0Q17163 139 17163 221V295Q17163 377 17122.0 417.0Q17081 457 17016 457Q16951 457 16910.0 417.0Q16869 377 16869 295V221Q16869 139 16910.0 99.0Q16951 59 17016 59Z M17409 446H17325V516H17409V620Q17409 674 17437.0 707.0Q17465 740 17522 740H17600V670H17489V516H17600V446H17489V0H17409Z M17981 637Q17955 637 17943.5 649.5Q17932 662 17932 682V695Q17932 715 17943.5 727.5Q17955 740 17981 740Q18007 740 18018.5 727.5Q18030 715 18030 695V682Q18030 662 18018.5 649.5Q18007 637 17981 637ZM17941 516H18021V0H17941Z M18191 0V516H18271V432H18275Q18284 452 18295.5 469.5Q18307 487 18323.5 500.0Q18340 513 18362.0 520.5Q18384 528 18414 528Q18465 528 18508.0 503.5Q18551 479 18572 423H18574Q18588 465 18626.5 496.5Q18665 528 18731 528Q18810 528 18854.5 476.5Q18899 425 18899 331V0H18819V317Q18819 386 18792.0 421.0Q18765 456 18706 456Q18682 456 18660.5 450.0Q18639 444 18622.0 432.0Q18605 420 18595.0 401.5Q18585 383 18585 358V0H18505V317Q18505 386 18478.0 421.0Q18451 456 18394 456Q18370 456 18348.0 450.0Q18326 444 18309.0 432.0Q18292 420 18281.5 401.5Q18271 383 18271 358V0Z M19064 0V516H19144V432H19148Q19157 452 19168.5 469.5Q19180 487 19196.5 500.0Q19213 513 19235.0 520.5Q19257 528 19287 528Q19338 528 19381.0 503.5Q19424 479 19445 423H19447Q19461 465 19499.5 496.5Q19538 528 19604 528Q19683 528 19727.5 476.5Q19772 425 19772 331V0H19692V317Q19692 386 19665.0 421.0Q19638 456 19579 456Q19555 456 19533.5 450.0Q19512 444 19495.0 432.0Q19478 420 19468.0 401.5Q19458 383 19458 358V0H19378V317Q19378 386 19351.0 421.0Q19324 456 19267 456Q19243 456 19221.0 450.0Q19199 444 19182.0 432.0Q19165 420 19154.5 401.5Q19144 383 19144 358V0Z M20255 84H20251Q20243 66 20231.5 48.5Q20220 31 20203.0 17.5Q20186 4 20162.0 -4.0Q20138 -12 20106 -12Q20026 -12 19979.0 39.5Q19932 91 19932 185V516H20012V199Q20012 60 20130 60Q20154 60 20176.5 66.0Q20199 72 20216.5 84.0Q20234 96 20244.5 114.5Q20255 133 20255 159V516H20335V0H20255Z M20505 0V516H20585V432H20589Q20608 476 20642.5 502.0Q20677 528 20735 528Q20815 528 20861.5 476.5Q20908 425 20908 331V0H20828V317Q20828 456 20711 456Q20687 456 20664.5 450.0Q20642 444 20624.0 432.0Q20606 420 20595.5 401.5Q20585 383 20585 358V0Z M21267 -12Q21214 -12 21171.5 7.0Q21129 26 21098.5 61.5Q21068 97 21051.5 146.5Q21035 196 21035 258Q21035 319 21051.5 369.0Q21068 419 21098.5 454.5Q21129 490 21171.5 509.0Q21214 528 21267 528Q21319 528 21360.0 509.0Q21401 490 21430.0 456.5Q21459 423 21474.5 377.0Q21490 331 21490 276V238H21119V214Q21119 181 21129.5 152.5Q21140 124 21159.5 103.0Q21179 82 21207.5 70.0Q21236 58 21272 58Q21321 58 21357.5 81.0Q21394 104 21414 147L21471 106Q21446 53 21393.0 20.5Q21340 -12 21267 -12ZM21267 461Q21234 461 21207.0 449.5Q21180 438 21160.5 417.0Q21141 396 21130.0 367.5Q21119 339 21119 305V298H21404V309Q21404 378 21366.5 419.5Q21329 461 21267 461Z M22013 -12Q21941 -12 21892.5 15.5Q21844 43 21809 89L21866 135Q21896 97 21933.0 76.5Q21970 56 22019 56Q22070 56 22098.5 78.0Q22127 100 22127 140Q22127 170 22107.5 191.5Q22088 213 22037 221L21996 227Q21960 232 21930.0 242.5Q21900 253 21877.5 270.5Q21855 288 21842.5 314.0Q21830 340 21830 376Q21830 414 21844.0 442.5Q21858 471 21882.5 490.0Q21907 509 21941.0 518.5Q21975 528 22014 528Q22077 528 22119.5 506.0Q22162 484 22194 445L22141 397Q22124 421 22091.0 440.5Q22058 460 22008 460Q21958 460 21932.5 438.5Q21907 417 21907 380Q21907 342 21932.5 325.0Q21958 308 22006 300L22046 294Q22132 281 22168.0 244.5Q22204 208 22204 149Q22204 74 22153.0 31.0Q22102 -12 22013 -12Z M22385 637Q22359 637 22347.5 649.5Q22336 662 22336 682V695Q22336 715 22347.5 727.5Q22359 740 22385 740Q22411 740 22422.5 727.5Q22434 715 22434 695V682Q22434 662 22422.5 649.5Q22411 637 22385 637ZM22345 516H22425V0H22345Z M23030 -57Q23030 -137 22967.5 -174.5Q22905 -212 22780 -212Q22659 -212 22606.0 -179.0Q22553 -146 22553 -85Q22553 -43 22575.0 -19.5Q22597 4 22635 15V26Q22589 48 22589 98Q22589 137 22614.0 157.5Q22639 178 22678 188V192Q22632 214 22606.5 255.0Q22581 296 22581 350Q22581 389 22595.0 422.0Q22609 455 22634.5 478.5Q22660 502 22695.5 515.0Q22731 528 22775 528Q22830 528 22873 508V517Q22873 547 22887.0 566.5Q22901 586 22933 586H23010V516H22912V483Q22940 459 22955.5 425.5Q22971 392 22971 350Q22971 311 22957.0 278.0Q22943 245 22917.5 221.5Q22892 198 22856.0 185.0Q22820 172 22776 172Q22751 172 22726 177Q22700 170 22679.0 156.5Q22658 143 22658 119Q22658 96 22680.0 88.0Q22702 80 22737 80H22847Q22943 80 22986.5 43.5Q23030 7 23030 -57ZM22955 -63Q22955 -32 22931.5 -13.5Q22908 5 22848 5H22676Q22628 -17 22628 -65Q22628 -99 22653.5 -123.0Q22679 -147 22740 -147H22814Q22881 -147 22918.0 -126.0Q22955 -105 22955 -63ZM22776 236Q22827 236 22857.0 260.5Q22887 285 22887 336V364Q22887 415 22857.0 439.5Q22827 464 22776 464Q22725 464 22695.0 439.5Q22665 415 22665 364V336Q22665 285 22695.0 260.5Q22725 236 22776 236Z M23123 0V516H23203V432H23207Q23226 476 23260.5 502.0Q23295 528 23353 528Q23433 528 23479.5 476.5Q23526 425 23526 331V0H23446V317Q23446 456 23329 456Q23305 456 23282.5 450.0Q23260 444 23242.0 432.0Q23224 420 23213.5 401.5Q23203 383 23203 358V0Z M24066 0Q24021 0 24001.5 24.0Q23982 48 23977 84H23972Q23955 36 23916.0 12.0Q23877 -12 23823 -12Q23741 -12 23695.5 30.0Q23650 72 23650 144Q23650 217 23703.5 256.0Q23757 295 23870 295H23972V346Q23972 401 23942.0 430.0Q23912 459 23850 459Q23803 459 23771.5 438.0Q23740 417 23719 382L23671 427Q23692 469 23738.0 498.5Q23784 528 23854 528Q23948 528 24000.0 482.0Q24052 436 24052 354V70H24111V0ZM23836 56Q23866 56 23891.0 63.0Q23916 70 23934.0 83.0Q23952 96 23962.0 113.0Q23972 130 23972 150V235H23866Q23797 235 23765.5 215.0Q23734 195 23734 157V136Q23734 98 23761.5 77.0Q23789 56 23836 56Z M24310 0Q24268 0 24246.5 23.5Q24225 47 24225 83V740H24305V70H24381V0Z M24582 0Q24540 0 24518.5 23.5Q24497 47 24497 83V740H24577V70H24653V0Z M24809 637Q24783 637 24771.5 649.5Q24760 662 24760 682V695Q24760 715 24771.5 727.5Q24783 740 24809 740Q24835 740 24846.5 727.5Q24858 715 24858 695V682Q24858 662 24846.5 649.5Q24835 637 24809 637ZM24769 516H24849V0H24769Z M25019 0V516H25099V432H25103Q25122 476 25156.5 502.0Q25191 528 25249 528Q25329 528 25375.5 476.5Q25422 425 25422 331V0H25342V317Q25342 456 25225 456Q25201 456 25178.5 450.0Q25156 444 25138.0 432.0Q25120 420 25109.5 401.5Q25099 383 25099 358V0Z M26022 -57Q26022 -137 25959.5 -174.5Q25897 -212 25772 -212Q25651 -212 25598.0 -179.0Q25545 -146 25545 -85Q25545 -43 25567.0 -19.5Q25589 4 25627 15V26Q25581 48 25581 98Q25581 137 25606.0 157.5Q25631 178 25670 188V192Q25624 214 25598.5 255.0Q25573 296 25573 350Q25573 389 25587.0 422.0Q25601 455 25626.5 478.5Q25652 502 25687.5 515.0Q25723 528 25767 528Q25822 528 25865 508V517Q25865 547 25879.0 566.5Q25893 586 25925 586H26002V516H25904V483Q25932 459 25947.5 425.5Q25963 392 25963 350Q25963 311 25949.0 278.0Q25935 245 25909.5 221.5Q25884 198 25848.0 185.0Q25812 172 25768 172Q25743 172 25718 177Q25692 170 25671.0 156.5Q25650 143 25650 119Q25650 96 25672.0 88.0Q25694 80 25729 80H25839Q25935 80 25978.5 43.5Q26022 7 26022 -57ZM25947 -63Q25947 -32 25923.5 -13.5Q25900 5 25840 5H25668Q25620 -17 25620 -65Q25620 -99 25645.5 -123.0Q25671 -147 25732 -147H25806Q25873 -147 25910.0 -126.0Q25947 -105 25947 -63ZM25768 236Q25819 236 25849.0 260.5Q25879 285 25879 336V364Q25879 415 25849.0 439.5Q25819 464 25768 464Q25717 464 25687.0 439.5Q25657 415 25657 364V336Q25657 285 25687.0 260.5Q25717 236 25768 236Z" fill="#5b6470"/>
  <path transform="translate(565.37 458.00) scale(0.034000 -0.034000)" d="M520 -57Q520 -137 457.5 -174.5Q395 -212 270 -212Q149 -212 96.0 -179.0Q43 -146 43 -85Q43 -43 65.0 -19.5Q87 4 125 15V26Q79 48 79 98Q79 137 104.0 157.5Q129 178 168 188V192Q122 214 96.5 255.0Q71 296 71 350Q71 389 85.0 422.0Q99 455 124.5 478.5Q150 502 185.5 515.0Q221 528 265 528Q320 528 363 508V517Q363 547 377.0 566.5Q391 586 423 586H500V516H402V483Q430 459 445.5 425.5Q461 392 461 350Q461 311 447.0 278.0Q433 245 407.5 221.5Q382 198 346.0 185.0Q310 172 266 172Q241 172 216 177Q190 170 169.0 156.5Q148 143 148 119Q148 96 170.0 88.0Q192 80 227 80H337Q433 80 476.5 43.5Q520 7 520 -57ZM445 -63Q445 -32 421.5 -13.5Q398 5 338 5H166Q118 -17 118 -65Q118 -99 143.5 -123.0Q169 -147 230 -147H304Q371 -147 408.0 -126.0Q445 -105 445 -63ZM266 236Q317 236 347.0 260.5Q377 285 377 336V364Q377 415 347.0 439.5Q317 464 266 464Q215 464 185.0 439.5Q155 415 155 364V336Q155 285 185.0 260.5Q215 236 266 236Z M807 -12Q754 -12 711.5 7.0Q669 26 638.5 61.5Q608 97 591.5 146.5Q575 196 575 258Q575 319 591.5 369.0Q608 419 638.5 454.5Q669 490 711.5 509.0Q754 528 807 528Q859 528 900.0 509.0Q941 490 970.0 456.5Q999 423 1014.5 377.0Q1030 331 1030 276V238H659V214Q659 181 669.5 152.5Q680 124 699.5 103.0Q719 82 747.5 70.0Q776 58 812 58Q861 58 897.5 81.0Q934 104 954 147L1011 106Q986 53 933.0 20.5Q880 -12 807 -12ZM807 461Q774 461 747.0 449.5Q720 438 700.5 417.0Q681 396 670.0 367.5Q659 339 659 305V298H944V309Q944 378 906.5 419.5Q869 461 807 461Z M1162 0V516H1242V432H1246Q1265 476 1299.5 502.0Q1334 528 1392 528Q1472 528 1518.5 476.5Q1565 425 1565 331V0H1485V317Q1485 456 1368 456Q1344 456 1321.5 450.0Q1299 444 1281.0 432.0Q1263 420 1252.5 401.5Q1242 383 1242 358V0Z M1924 -12Q1871 -12 1828.5 7.0Q1786 26 1755.5 61.5Q1725 97 1708.5 146.5Q1692 196 1692 258Q1692 319 1708.5 369.0Q1725 419 1755.5 454.5Q1786 490 1828.5 509.0Q1871 528 1924 528Q1976 528 2017.0 509.0Q2058 490 2087.0 456.5Q2116 423 2131.5 377.0Q2147 331 2147 276V238H1776V214Q1776 181 1786.5 152.5Q1797 124 1816.5 103.0Q1836 82 1864.5 70.0Q1893 58 1929 58Q1978 58 2014.5 81.0Q2051 104 2071 147L2128 106Q2103 53 2050.0 20.5Q1997 -12 1924 -12ZM1924 461Q1891 461 1864.0 449.5Q1837 438 1817.5 417.0Q1798 396 1787.0 367.5Q1776 339 1776 305V298H2061V309Q2061 378 2023.5 419.5Q1986 461 1924 461Z M2670 -12Q2598 -12 2549.5 15.5Q2501 43 2466 89L2523 135Q2553 97 2590.0 76.5Q2627 56 2676 56Q2727 56 2755.5 78.0Q2784 100 2784 140Q2784 170 2764.5 191.5Q2745 213 2694 221L2653 227Q2617 232 2587.0 242.5Q2557 253 2534.5 270.5Q2512 288 2499.5 314.0Q2487 340 2487 376Q2487 414 2501.0 442.5Q2515 471 2539.5 490.0Q2564 509 2598.0 518.5Q2632 528 2671 528Q2734 528 2776.5 506.0Q2819 484 2851 445L2798 397Q2781 421 2748.0 440.5Q2715 460 2665 460Q2615 460 2589.5 438.5Q2564 417 2564 380Q2564 342 2589.5 325.0Q2615 308 2663 300L2703 294Q2789 281 2825.0 244.5Q2861 208 2861 149Q2861 74 2810.0 31.0Q2759 -12 2670 -12Z M3196 -12Q3143 -12 3100.5 7.0Q3058 26 3027.5 61.5Q2997 97 2980.5 146.5Q2964 196 2964 258Q2964 319 2980.5 369.0Q2997 419 3027.5 454.5Q3058 490 3100.5 509.0Q3143 528 3196 528Q3248 528 3289.0 509.0Q3330 490 3359.0 456.5Q3388 423 3403.5 377.0Q3419 331 3419 276V238H3048V214Q3048 181 3058.5 152.5Q3069 124 3088.5 103.0Q3108 82 3136.5 70.0Q3165 58 3201 58Q3250 58 3286.5 81.0Q3323 104 3343 147L3400 106Q3375 53 3322.0 20.5Q3269 -12 3196 -12ZM3196 461Q3163 461 3136.0 449.5Q3109 438 3089.5 417.0Q3070 396 3059.0 367.5Q3048 339 3048 305V298H3333V309Q3333 378 3295.5 419.5Q3258 461 3196 461Z M3665 0Q3623 0 3601.5 23.5Q3580 47 3580 85V446H3495V516H3543Q3569 516 3578.5 526.5Q3588 537 3588 563V659H3660V516H3773V446H3660V70H3765V0Z M4057 -12Q3985 -12 3936.5 15.5Q3888 43 3853 89L3910 135Q3940 97 3977.0 76.5Q4014 56 4063 56Q4114 56 4142.5 78.0Q4171 100 4171 140Q4171 170 4151.5 191.5Q4132 213 4081 221L4040 227Q4004 232 3974.0 242.5Q3944 253 3921.5 270.5Q3899 288 3886.5 314.0Q3874 340 3874 376Q3874 414 3888.0 442.5Q3902 471 3926.5 490.0Q3951 509 3985.0 518.5Q4019 528 4058 528Q4121 528 4163.5 506.0Q4206 484 4238 445L4185 397Q4168 421 4135.0 440.5Q4102 460 4052 460Q4002 460 3976.5 438.5Q3951 417 3951 380Q3951 342 3976.5 325.0Q4002 308 4050 300L4090 294Q4176 281 4212.0 244.5Q4248 208 4248 149Q4248 74 4197.0 31.0Q4146 -12 4057 -12Z" fill="#5b6470"/>
</svg>
